<?xml version="1.0" standalone="no"?>
<!DOCTYPE svg PUBLIC "-//W3C//DTD SVG 20010904//EN"
 "http://www.w3.org/TR/2001/REC-SVG-20010904/DTD/svg10.dtd">
<svg version="1.0" xmlns="http://www.w3.org/2000/svg"
 width="700.000000pt" height="700.000000pt" viewBox="0 0 700.000000 700.000000"
 preserveAspectRatio="xMidYMid meet">
<metadata>
Created by potrace 1.14, written by Peter Selinger 2001-2017
</metadata>
<g transform="translate(0.000000,700.000000) scale(0.100000,-0.100000)"
fill="#000000" stroke="none">
<path d="M2252 6112 c-218 -64 -279 -336 -112 -493 83 -78 93 -79 618 -79
l452 0 0 -290 0 -290 -37 0 c-21 0 -366 -1 -768 -1 -756 -1 -770 -1 -922 -43
-67 -18 -210 -94 -270 -143 -182 -148 -293 -339 -329 -563 -4 -25 -8 -257 -8
-517 -1 -259 -4 -474 -7 -477 -2 -3 -79 -6 -169 -7 -187 -1 -236 -13 -308 -74
-118 -102 -131 -297 -26 -411 37 -40 99 -79 144 -89 19 -5 107 -10 195 -11 88
-1 162 -2 165 -3 3 -1 5 -211 6 -469 0 -257 4 -489 8 -517 33 -233 152 -437
342 -585 62 -49 186 -111 269 -135 140 -41 140 -41 2040 -39 l1830 1 96 26
c353 93 594 361 655 727 4 25 9 256 10 515 1 259 2 472 3 475 0 3 72 5 159 4
209 -1 268 17 345 100 64 69 92 194 62 279 -31 90 -110 168 -196 193 -22 7
-111 13 -202 14 -88 0 -164 3 -167 6 -2 3 -5 218 -6 477 0 260 -4 492 -8 517
-63 377 -343 665 -717 737 -19 4 -378 8 -799 9 -421 2 -775 3 -787 4 l-23 0 0
466 c0 458 0 466 -22 517 -38 88 -113 154 -198 173 -19 4 -313 8 -653 8 -490
1 -628 -2 -665 -12z m3103 -1757 c88 -38 152 -110 175 -194 8 -31 11 -378 11
-1244 -1 -661 -3 -1215 -6 -1232 -15 -76 -79 -154 -165 -201 -34 -18 -85 -19
-1870 -19 l-1835 0 -40 21 c-81 44 -142 121 -160 203 -4 18 -7 575 -7 1237 1
1278 -1 1238 48 1316 20 32 106 107 123 108 3 1 27 6 52 13 35 9 468 12 1840
11 1690 -1 1796 -2 1834 -19z"/>
<path d="M2539 3487 c-86 -32 -146 -86 -183 -166 -20 -44 -21 -59 -21 -406 0
-356 1 -361 24 -409 68 -145 246 -212 384 -146 76 36 133 100 155 173 17 56
19 95 18 402 -2 320 -3 343 -22 386 -48 105 -138 168 -253 175 -41 3 -80 -1
-102 -9z"/>
<path d="M4303 3491 c-82 -21 -158 -87 -197 -171 -20 -43 -21 -61 -20 -405 0
-341 1 -362 21 -405 51 -113 164 -182 285 -175 106 7 199 71 248 170 l25 50 0
360 0 360 -28 57 c-48 97 -137 158 -242 164 -33 2 -74 -1 -92 -5z"/>
</g>
</svg>
