<?xml version="1.0" standalone="no"?>
<!DOCTYPE svg PUBLIC "-//W3C//DTD SVG 20010904//EN"
 "http://www.w3.org/TR/2001/REC-SVG-20010904/DTD/svg10.dtd">
<svg version="1.0" xmlns="http://www.w3.org/2000/svg"
 width="700.000000pt" height="700.000000pt" viewBox="0 0 700.000000 700.000000"
 preserveAspectRatio="xMidYMid meet">
<metadata>
Created by potrace 1.14, written by Peter Selinger 2001-2017
</metadata>
<g transform="translate(0.000000,700.000000) scale(0.100000,-0.100000)"
fill="#000000" stroke="none">
<path d="M3279 6996 c-2 -2 -40 -6 -84 -10 -87 -7 -143 -13 -190 -21 -16 -2
-48 -7 -70 -10 -132 -19 -365 -75 -518 -126 -767 -256 -1403 -742 -1842 -1409
-100 -152 -198 -329 -260 -470 -26 -58 -50 -114 -55 -125 -113 -250 -218 -677
-248 -1010 -9 -103 -9 -530 1 -615 4 -36 10 -87 13 -115 3 -27 14 -102 25
-165 135 -784 534 -1496 1134 -2026 529 -468 1198 -769 1885 -850 30 -3 63 -8
73 -10 10 -1 73 -6 140 -10 366 -21 755 17 1087 106 41 12 83 23 93 25 83 19
363 126 517 198 381 177 798 485 1078 797 113 127 131 147 172 200 19 25 38
50 43 55 205 265 408 644 520 975 89 258 151 547 173 790 3 36 7 83 9 105 5
46 5 401 1 461 -8 92 -17 181 -20 204 -3 14 -7 48 -11 75 -3 28 -8 57 -10 65
-2 8 -6 32 -9 52 -3 21 -10 57 -15 80 -6 24 -12 54 -15 68 -9 49 -67 256 -93
330 -110 318 -242 584 -425 855 -45 66 -86 125 -92 132 -6 6 -22 26 -36 44
-78 104 -173 211 -305 343 -374 375 -841 664 -1343 833 -73 24 -141 46 -150
48 -9 2 -60 15 -112 29 -149 39 -297 66 -507 91 -45 6 -549 15 -554 11z m486
-589 c17 -3 55 -7 85 -11 30 -4 78 -11 105 -16 28 -5 66 -12 85 -14 19 -3 80
-17 135 -30 1092 -268 1940 -1147 2166 -2245 24 -117 26 -131 35 -206 3 -33
10 -82 14 -110 8 -50 5 -529 -3 -575 -3 -14 -8 -48 -11 -75 -7 -52 -22 -142
-32 -185 -3 -14 -7 -36 -10 -50 -50 -246 -175 -571 -318 -825 -50 -87 -172
-267 -243 -355 -438 -549 -1032 -915 -1713 -1054 -217 -44 -340 -54 -610 -51
-197 2 -351 15 -470 40 -14 2 -50 10 -80 16 -395 79 -804 264 -1143 517 -56
41 -107 80 -113 86 -7 6 -42 38 -80 71 -222 197 -411 423 -569 685 -51 84
-195 369 -195 385 0 4 -6 21 -14 38 -27 58 -76 209 -106 321 -73 278 -98 484
-94 786 1 107 5 211 7 230 3 19 9 62 12 95 10 91 54 310 80 400 57 192 54 184
116 338 106 261 270 531 462 762 78 93 313 323 407 398 161 128 350 250 525
338 182 92 517 212 649 233 21 4 41 8 45 10 3 3 27 7 51 11 25 3 52 8 60 10
32 9 116 20 265 34 69 7 441 5 500 -2z"/>
<path d="M3365 6114 c-263 -54 -457 -246 -515 -509 -19 -84 -12 -263 11 -307
5 -10 7 -18 4 -18 -9 0 46 -115 82 -169 55 -84 131 -153 228 -207 19 -10 20
-24 23 -193 1 -99 -1 -181 -5 -181 -5 -1 -365 -1 -800 -2 l-793 0 0 -1454 c0
-1156 3 -1454 13 -1455 6 0 235 -1 507 -2 l495 -2 2 -155 c1 -85 2 -180 2
-210 l1 -56 88 -28 c48 -16 106 -35 129 -42 24 -8 57 -16 75 -19 18 -3 62 -12
98 -20 69 -14 126 -23 200 -31 25 -2 65 -6 90 -9 58 -6 320 -6 385 0 203 19
420 63 580 117 l100 34 0 209 0 210 508 0 507 0 1 35 c1 44 1 2839 0 2862 -1
15 -59 16 -763 17 -420 0 -779 0 -799 0 l-36 1 -1 178 0 179 56 34 c116 70
219 199 268 335 151 415 -155 860 -596 869 -47 1 -112 -4 -145 -11z m-506
-2057 c70 -47 148 -191 171 -318 6 -32 13 -71 16 -86 8 -41 9 -209 1 -273 -21
-169 -69 -295 -148 -384 -77 -89 -190 -87 -272 3 -96 107 -151 293 -151 511 0
118 9 184 35 280 69 245 213 356 348 267z m1400 27 c42 -9 114 -74 150 -137
71 -125 107 -305 98 -487 -3 -58 -8 -118 -12 -135 -39 -197 -120 -343 -212
-381 -83 -35 -172 2 -234 97 -80 123 -110 238 -115 434 -3 164 7 246 42 353
39 115 114 220 177 247 36 16 60 18 106 9z m-55 -1479 c-1 -45 -12 -116 -22
-150 -56 -185 -226 -342 -412 -381 -80 -17 -132 -20 -310 -19 -230 2 -274 10
-395 73 -170 90 -297 274 -312 457 l-5 51 729 -1 728 0 -1 -30z"/>
</g>
</svg>
